<?xml version="1.0" standalone="no"?>
<!DOCTYPE svg PUBLIC "-//W3C//DTD SVG 20010904//EN"
 "http://www.w3.org/TR/2001/REC-SVG-20010904/DTD/svg10.dtd">
<svg version="1.0" xmlns="http://www.w3.org/2000/svg"
 width="180.000000pt" height="180.000000pt" viewBox="0 0 180.000000 180.000000"
 preserveAspectRatio="xMidYMid meet">
<metadata>
Created by potrace 1.16, written by Peter Selinger 2001-2019
</metadata>
<g transform="translate(0.000000,180.000000) scale(0.100000,-0.100000)"
fill="#000000" stroke="none">
<path d="M357 1452 l-227 -227 0 -325 0 -325 228 -228 227 -227 320 0 320 0
233 233 232 232 0 315 0 315 -233 233 -232 232 -163 0 -163 0 95 -80 c53 -45
96 -85 96 -90 0 -28 -30 -14 -107 51 -99 84 -83 85 -202 -14 -62 -52 -91 -64
-91 -37 0 4 39 41 88 81 48 40 91 76 97 81 5 4 -58 8 -141 8 l-149 0 -228
-228z m431 -216 c8 -38 9 -62 3 -65 -5 -4 -58 -15 -116 -25 -98 -18 -108 -21
-117 -45 -10 -27 -7 -365 3 -376 4 -3 57 -15 118 -27 111 -22 112 -23 106 -48
-20 -83 -27 -100 -41 -100 -32 0 -269 61 -290 75 -35 23 -48 106 -49 315 0
199 9 250 48 272 36 20 270 87 297 85 22 -2 26 -9 38 -61z m427 43 c126 -19
140 -25 174 -76 36 -53 39 -89 15 -172 -20 -72 -31 -86 -85 -109 l-44 -19 58
-26 57 -26 0 -69 c0 -80 -23 -157 -54 -177 -11 -7 -48 -18 -81 -24 -95 -16
-289 -32 -296 -23 -4 4 -10 125 -14 268 -8 296 -17 266 77 279 l46 7 8 -81 c3
-45 10 -81 15 -81 5 0 41 6 80 12 67 12 73 15 85 45 21 48 18 120 -3 127 -46
12 -96 19 -231 29 l-147 12 9 64 8 64 127 -7 c69 -4 157 -11 196 -17z m-416
-1046 c62 -52 77 -60 90 -50 8 7 48 40 89 74 71 59 92 68 92 39 0 -13 -172
-159 -193 -164 -7 -1 -56 34 -110 79 -79 66 -96 84 -86 95 9 12 15 12 27 2 9
-7 49 -41 91 -75z"/>
<path d="M1080 764 l0 -96 48 6 c124 18 122 15 122 113 l0 52 -57 6 c-32 3
-70 8 -85 10 l-28 5 0 -96z"/>
</g>
</svg>
